{
	"asset":{
		"generator":"Khronos glTF Blender I/O v4.0.44",
		"version":"2.0"
	},
	"scene":0,
	"scenes":[
		{
			"name":"Scene",
			"nodes":[
				1
			]
		}
	],
	"nodes":[
		{
			"mesh":0,
			"name":"sword",
			"rotation":[
				0.050533801317214966,
				0.09917818754911423,
				-0.45116931200027466,
				0.8854695558547974
			],
			"scale":[
				-0.16604934632778168,
				-0.06433272361755371,
				-0.014255229383707047
			],
			"translation":[
				0.3760480284690857,
				-1.0617033243179321,
				-0.7126631140708923
			]
		},
		{
			"children":[
				0
			],
			"mesh":1,
			"name":"cat",
			"scale":[
				1.0951496362686157,
				1.0951496362686157,
				1.0951496362686157
			],
			"translation":[
				0,
				2.7141411304473877,
				0
			]
		}
	],
	"materials":[
		{
			"doubleSided":true,
			"name":"sword",
			"normalTexture":{
				"index":0
			},
			"pbrMetallicRoughness":{
				"baseColorTexture":{
					"index":1
				},
				"metallicFactor":0,
				"metallicRoughnessTexture":{
					"index":2
				}
			}
		},
		{
			"doubleSided":true,
			"name":"Material.001",
			"pbrMetallicRoughness":{}
		}
	],
	"meshes":[
		{
			"name":"Cube",
			"primitives":[
				{
					"attributes":{
						"POSITION":0,
						"NORMAL":1,
						"TEXCOORD_0":2
					},
					"indices":3,
					"material":0
				}
			]
		},
		{
			"name":"Cube.001",
			"primitives":[
				{
					"attributes":{
						"POSITION":4,
						"NORMAL":5,
						"TEXCOORD_0":6
					},
					"indices":7,
					"material":1
				}
			]
		}
	],
	"textures":[
		{
			"sampler":0,
			"source":0
		},
		{
			"sampler":0,
			"source":1
		},
		{
			"sampler":0,
			"source":2
		}
	],
	"images":[
		{
			"mimeType":"image/png",
			"name":"dirty_carpet_nor_gl_4k",
			"uri":"dirty_carpet_nor_gl_4k.png"
		},
		{
			"mimeType":"image/png",
			"name":"sword-bg",
			"uri":"sword-bg.png"
		},
		{
			"mimeType":"image/png",
			"name":"dirty_carpet_rough_4k",
			"uri":"dirty_carpet_rough_4k.png"
		}
	],
	"accessors":[
		{
			"bufferView":0,
			"componentType":5126,
			"count":1099,
			"max":[
				2.944798231124878,
				29.110979080200195,
				10.242471694946289
			],
			"min":[
				-2.909186363220215,
				-15.37824535369873,
				-10.345417022705078
			],
			"type":"VEC3"
		},
		{
			"bufferView":1,
			"componentType":5126,
			"count":1099,
			"type":"VEC3"
		},
		{
			"bufferView":2,
			"componentType":5126,
			"count":1099,
			"type":"VEC2"
		},
		{
			"bufferView":3,
			"componentType":5123,
			"count":4710,
			"type":"SCALAR"
		},
		{
			"bufferView":4,
			"componentType":5126,
			"count":9996,
			"max":[
				1.2979470491409302,
				1.220283031463623,
				0.7468217015266418
			],
			"min":[
				-1.2979470491409302,
				-2.4770147800445557,
				-0.8404090404510498
			],
			"type":"VEC3"
		},
		{
			"bufferView":5,
			"componentType":5126,
			"count":9996,
			"type":"VEC3"
		},
		{
			"bufferView":6,
			"componentType":5126,
			"count":9996,
			"type":"VEC2"
		},
		{
			"bufferView":7,
			"componentType":5123,
			"count":43080,
			"type":"SCALAR"
		}
	],
	"bufferViews":[
		{
			"buffer":0,
			"byteLength":13188,
			"byteOffset":0,
			"target":34962
		},
		{
			"buffer":0,
			"byteLength":13188,
			"byteOffset":13188,
			"target":34962
		},
		{
			"buffer":0,
			"byteLength":8792,
			"byteOffset":26376,
			"target":34962
		},
		{
			"buffer":0,
			"byteLength":9420,
			"byteOffset":35168,
			"target":34963
		},
		{
			"buffer":0,
			"byteLength":119952,
			"byteOffset":44588,
			"target":34962
		},
		{
			"buffer":0,
			"byteLength":119952,
			"byteOffset":164540,
			"target":34962
		},
		{
			"buffer":0,
			"byteLength":79968,
			"byteOffset":284492,
			"target":34962
		},
		{
			"buffer":0,
			"byteLength":86160,
			"byteOffset":364460,
			"target":34963
		}
	],
	"samplers":[
		{
			"magFilter":9729,
			"minFilter":9987
		}
	],
	"buffers":[
		{
			"byteLength":450620,
			"uri":"complate-cat.bin"
		}
	]
}
