{
	"asset":{
		"generator":"Khronos glTF Blender I/O v4.0.44",
		"version":"2.0"
	},
	"scene":0,
	"scenes":[
		{
			"name":"Scene",
			"nodes":[
				0,
				1,
				2,
				3,
				4,
				5,
				6,
				7,
				8,
				9,
				10,
				11,
				12,
				13,
				14,
				15,
				16
			]
		}
	],
	"nodes":[
		{
			"mesh":0,
			"name":"heat",
			"translation":[
				0,
				1.3253233432769775,
				0
			]
		},
		{
			"mesh":1,
			"name":"body",
			"scale":[
				0.20075787603855133,
				0.20075787603855133,
				0.20075787603855133
			],
			"translation":[
				0,
				0.7574098706245422,
				0
			]
		},
		{
			"mesh":2,
			"name":"leg",
			"scale":[
				0.04254462942481041,
				0.04729912057518959,
				0.04729912057518959
			],
			"translation":[
				0.09293129295110703,
				0.7451069951057434,
				0
			]
		},
		{
			"mesh":3,
			"name":"neck",
			"scale":[
				0.05221403017640114,
				0.05221403017640114,
				0.05221403017640114
			],
			"translation":[
				0,
				1.1286500692367554,
				0
			]
		},
		{
			"mesh":4,
			"name":"feet",
			"scale":[
				0.05775970220565796,
				0.05775970220565796,
				0.05775970220565796
			],
			"translation":[
				0.09825153648853302,
				0.058306217193603516,
				0
			]
		},
		{
			"mesh":5,
			"name":"mandible",
			"scale":[
				1,
				1,
				1.0907036066055298
			],
			"translation":[
				0,
				1.1900913715362549,
				0.07178980857133865
			]
		},
		{
			"mesh":6,
			"name":"nose",
			"rotation":[
				0.7071068286895752,
				0,
				0,
				0.7071068286895752
			],
			"scale":[
				0.03537586331367493,
				0.3177570700645447,
				0.0351422056555748
			],
			"translation":[
				0,
				1.254124641418457,
				0.319136381149292
			]
		},
		{
			"mesh":7,
			"name":"mouth",
			"rotation":[
				0.7390641570091248,
				0.2617436349391937,
				0.04035108909010887,
				0.6193917989730835
			],
			"scale":[
				0.014598009176552296,
				0.1311238408088684,
				0.01450158841907978
			],
			"translation":[
				0.110070139169693,
				1.194080114364624,
				0.30539649724960327
			]
		},
		{
			"mesh":8,
			"name":"eye",
			"rotation":[
				0.12862859666347504,
				-0.7053484916687012,
				0.6805931329727173,
				0.15076862275600433
			],
			"scale":[
				0.9112851619720459,
				0.9112851023674011,
				0.9112853407859802
			],
			"translation":[
				0.12241913378238678,
				1.3377658128738403,
				0.25652000308036804
			]
		},
		{
			"mesh":9,
			"name":"pupil",
			"rotation":[
				0.4805639088153839,
				-0.3593518137931824,
				-0.5093508362770081,
				0.6168357729911804
			],
			"translation":[
				0.08127501606941223,
				1.3389649391174316,
				0.2922903299331665
			]
		},
		{
			"mesh":10,
			"name":"eyebrow",
			"rotation":[
				0.4805639088153839,
				-0.3593518137931824,
				-0.5093508362770081,
				0.6168357729911804
			],
			"translation":[
				0.060654956847429276,
				1.4177871942520142,
				0.3018711507320404
			]
		},
		{
			"mesh":11,
			"name":"heir",
			"rotation":[
				0.3036540448665619,
				-0.35734429955482483,
				0.12408512085676193,
				0.8744726181030273
			],
			"translation":[
				-0.07750265300273895,
				1.6390626430511475,
				0.1129562184214592
			]
		},
		{
			"mesh":12,
			"name":"heir.001",
			"rotation":[
				0.531859815120697,
				-0.2864760160446167,
				0.2509898543357849,
				0.7563470005989075
			],
			"translation":[
				-0.07864239811897278,
				1.5896801948547363,
				0.15737652778625488
			]
		},
		{
			"mesh":13,
			"name":"heir.002",
			"rotation":[
				0.6328832507133484,
				-0.27605628967285156,
				0.2586212754249573,
				0.6755492687225342
			],
			"translation":[
				-0.04786928370594978,
				1.530677080154419,
				0.15737652778625488
			]
		},
		{
			"mesh":14,
			"name":"coat",
			"scale":[
				0.2420274317264557,
				0.2420274317264557,
				0.2420274317264557
			],
			"translation":[
				0,
				0.7574098706245422,
				0
			]
		},
		{
			"mesh":15,
			"name":"Plane",
			"scale":[
				0.6474742293357849,
				0.6474742293357849,
				0.6474742293357849
			],
			"translation":[
				0,
				0.8894294500350952,
				0
			]
		},
		{
			"mesh":16,
			"name":"Cube",
			"scale":[
				0.08910298347473145,
				0.08910298347473145,
				0.08910298347473145
			],
			"translation":[
				0.0898289754986763,
				0.5784214735031128,
				0
			]
		}
	],
	"meshes":[
		{
			"name":"Cube",
			"primitives":[
				{
					"attributes":{
						"POSITION":0,
						"NORMAL":1,
						"TEXCOORD_0":2
					},
					"indices":3
				}
			]
		},
		{
			"name":"Cube.001",
			"primitives":[
				{
					"attributes":{
						"POSITION":4,
						"NORMAL":5,
						"TEXCOORD_0":6
					},
					"indices":7
				}
			]
		},
		{
			"name":"Cube.003",
			"primitives":[
				{
					"attributes":{
						"POSITION":8,
						"NORMAL":9,
						"TEXCOORD_0":10
					},
					"indices":11
				}
			]
		},
		{
			"name":"Cube.005",
			"primitives":[
				{
					"attributes":{
						"POSITION":12,
						"NORMAL":13,
						"TEXCOORD_0":14
					},
					"indices":15
				}
			]
		},
		{
			"name":"Cube.006",
			"primitives":[
				{
					"attributes":{
						"POSITION":16,
						"NORMAL":17,
						"TEXCOORD_0":18
					},
					"indices":19
				}
			]
		},
		{
			"name":"Cube.007",
			"primitives":[
				{
					"attributes":{
						"POSITION":20,
						"NORMAL":21,
						"TEXCOORD_0":22
					},
					"indices":23
				}
			]
		},
		{
			"name":"Plane",
			"primitives":[
				{
					"attributes":{
						"POSITION":24,
						"NORMAL":25,
						"TEXCOORD_0":26
					},
					"indices":27
				}
			]
		},
		{
			"name":"Plane.001",
			"primitives":[
				{
					"attributes":{
						"POSITION":28,
						"NORMAL":29,
						"TEXCOORD_0":30
					},
					"indices":31
				}
			]
		},
		{
			"name":"Plane.003",
			"primitives":[
				{
					"attributes":{
						"POSITION":32,
						"NORMAL":33,
						"TEXCOORD_0":34
					},
					"indices":35
				}
			]
		},
		{
			"name":"Plane.004",
			"primitives":[
				{
					"attributes":{
						"POSITION":36,
						"NORMAL":37,
						"TEXCOORD_0":38
					},
					"indices":39
				}
			]
		},
		{
			"name":"Plane.005",
			"primitives":[
				{
					"attributes":{
						"POSITION":40,
						"NORMAL":41,
						"TEXCOORD_0":42
					},
					"indices":43
				}
			]
		},
		{
			"name":"Cube.008",
			"primitives":[
				{
					"attributes":{
						"POSITION":44,
						"NORMAL":45,
						"TEXCOORD_0":46
					},
					"indices":47
				}
			]
		},
		{
			"name":"Cube.009",
			"primitives":[
				{
					"attributes":{
						"POSITION":48,
						"NORMAL":49,
						"TEXCOORD_0":50
					},
					"indices":47
				}
			]
		},
		{
			"name":"Cube.010",
			"primitives":[
				{
					"attributes":{
						"POSITION":51,
						"NORMAL":52,
						"TEXCOORD_0":53
					},
					"indices":47
				}
			]
		},
		{
			"name":"Cube.011",
			"primitives":[
				{
					"attributes":{
						"POSITION":54,
						"NORMAL":55,
						"TEXCOORD_0":56
					},
					"indices":57
				}
			]
		},
		{
			"name":"Plane.002",
			"primitives":[
				{
					"attributes":{
						"POSITION":58,
						"NORMAL":59
					},
					"indices":60
				}
			]
		},
		{
			"name":"Cube.002",
			"primitives":[
				{
					"attributes":{
						"POSITION":61,
						"NORMAL":62,
						"TEXCOORD_0":63
					},
					"indices":64
				}
			]
		}
	],
	"accessors":[
		{
			"bufferView":0,
			"componentType":5126,
			"count":2682,
			"max":[
				0.4500427842140198,
				0.3633708655834198,
				0.2740747928619385
			],
			"min":[
				-0.4500427842140198,
				-0.2740747928619385,
				-0.2740747928619385
			],
			"type":"VEC3"
		},
		{
			"bufferView":1,
			"componentType":5126,
			"count":2682,
			"type":"VEC3"
		},
		{
			"bufferView":2,
			"componentType":5126,
			"count":2682,
			"type":"VEC2"
		},
		{
			"bufferView":3,
			"componentType":5123,
			"count":15552,
			"type":"SCALAR"
		},
		{
			"bufferView":4,
			"componentType":5126,
			"count":125,
			"max":[
				0.8395062685012817,
				0.8395062685012817,
				0.8395062685012817
			],
			"min":[
				-0.8395062685012817,
				-0.8395062685012817,
				-0.8395062685012817
			],
			"type":"VEC3"
		},
		{
			"bufferView":5,
			"componentType":5126,
			"count":125,
			"type":"VEC3"
		},
		{
			"bufferView":6,
			"componentType":5126,
			"count":125,
			"type":"VEC2"
		},
		{
			"bufferView":7,
			"componentType":5123,
			"count":576,
			"type":"SCALAR"
		},
		{
			"bufferView":8,
			"componentType":5126,
			"count":150,
			"max":[
				0.9166667461395264,
				0.909204363822937,
				0.9166667461395264
			],
			"min":[
				-5.285317420959473,
				-15.623058319091797,
				-0.9166667461395264
			],
			"type":"VEC3"
		},
		{
			"bufferView":9,
			"componentType":5126,
			"count":150,
			"type":"VEC3"
		},
		{
			"bufferView":10,
			"componentType":5126,
			"count":150,
			"type":"VEC2"
		},
		{
			"bufferView":11,
			"componentType":5123,
			"count":672,
			"type":"SCALAR"
		},
		{
			"bufferView":12,
			"componentType":5126,
			"count":48,
			"max":[
				0.7801390886306763,
				0.8395062685012817,
				0.7801390886306763
			],
			"min":[
				-0.7801390886306763,
				-5.583067417144775,
				-0.7801390886306763
			],
			"type":"VEC3"
		},
		{
			"bufferView":13,
			"componentType":5126,
			"count":48,
			"type":"VEC3"
		},
		{
			"bufferView":14,
			"componentType":5126,
			"count":48,
			"type":"VEC2"
		},
		{
			"bufferView":15,
			"componentType":5123,
			"count":192,
			"type":"SCALAR"
		},
		{
			"bufferView":16,
			"componentType":5126,
			"count":2208,
			"max":[
				1.7061737775802612,
				3.5062613487243652,
				5.08284854888916
			],
			"min":[
				-5.108253479003906,
				-1.003419041633606,
				-2.6606147289276123
			],
			"type":"VEC3"
		},
		{
			"bufferView":17,
			"componentType":5126,
			"count":2208,
			"type":"VEC3"
		},
		{
			"bufferView":18,
			"componentType":5126,
			"count":2208,
			"type":"VEC2"
		},
		{
			"bufferView":19,
			"componentType":5123,
			"count":12480,
			"type":"SCALAR"
		},
		{
			"bufferView":20,
			"componentType":5126,
			"count":2522,
			"max":[
				0.4835125505924225,
				0.15516594052314758,
				0.21414396166801453
			],
			"min":[
				-0.4835125803947449,
				-0.26814597845077515,
				-0.21414394676685333
			],
			"type":"VEC3"
		},
		{
			"bufferView":21,
			"componentType":5126,
			"count":2522,
			"type":"VEC3"
		},
		{
			"bufferView":22,
			"componentType":5126,
			"count":2522,
			"type":"VEC2"
		},
		{
			"bufferView":23,
			"componentType":5123,
			"count":13824,
			"type":"SCALAR"
		},
		{
			"bufferView":24,
			"componentType":5126,
			"count":98,
			"max":[
				2.7180495262145996,
				-0.01685185357928276,
				0.8395062685012817
			],
			"min":[
				-2.7180495262145996,
				-0.19314813613891602,
				-0.8395062685012817
			],
			"type":"VEC3"
		},
		{
			"bufferView":25,
			"componentType":5126,
			"count":98,
			"type":"VEC3"
		},
		{
			"bufferView":26,
			"componentType":5126,
			"count":98,
			"type":"VEC2"
		},
		{
			"bufferView":27,
			"componentType":5123,
			"count":576,
			"type":"SCALAR"
		},
		{
			"bufferView":28,
			"componentType":5126,
			"count":226,
			"max":[
				4.683194160461426,
				-0.008750000037252903,
				1.6092509031295776
			],
			"min":[
				-4.140013694763184,
				-0.20125001668930054,
				-0.9067848324775696
			],
			"type":"VEC3"
		},
		{
			"bufferView":29,
			"componentType":5126,
			"count":226,
			"type":"VEC3"
		},
		{
			"bufferView":30,
			"componentType":5126,
			"count":226,
			"type":"VEC2"
		},
		{
			"bufferView":31,
			"componentType":5123,
			"count":1344,
			"type":"SCALAR"
		},
		{
			"bufferView":32,
			"componentType":5126,
			"count":2052,
			"max":[
				0.3267713189125061,
				0.2304845005273819,
				0.1429453045129776
			],
			"min":[
				-0.14221197366714478,
				-0.01094725076109171,
				-0.1269865185022354
			],
			"type":"VEC3"
		},
		{
			"bufferView":33,
			"componentType":5126,
			"count":2052,
			"type":"VEC3"
		},
		{
			"bufferView":34,
			"componentType":5126,
			"count":2052,
			"type":"VEC2"
		},
		{
			"bufferView":35,
			"componentType":5123,
			"count":12288,
			"type":"SCALAR"
		},
		{
			"bufferView":36,
			"componentType":5126,
			"count":2052,
			"max":[
				0.05783665552735329,
				0.0005475289653986692,
				0.19455043971538544
			],
			"min":[
				-0.08831906318664551,
				-0.09283994138240814,
				-0.055716849863529205
			],
			"type":"VEC3"
		},
		{
			"bufferView":37,
			"componentType":5126,
			"count":2052,
			"type":"VEC3"
		},
		{
			"bufferView":38,
			"componentType":5126,
			"count":2052,
			"type":"VEC2"
		},
		{
			"bufferView":39,
			"componentType":5123,
			"count":12288,
			"type":"SCALAR"
		},
		{
			"bufferView":40,
			"componentType":5126,
			"count":1284,
			"max":[
				0.05840221792459488,
				0.03183206915855408,
				0.2644532322883606
			],
			"min":[
				-0.12544769048690796,
				-0.11199459433555603,
				-0.1841658353805542
			],
			"type":"VEC3"
		},
		{
			"bufferView":41,
			"componentType":5126,
			"count":1284,
			"type":"VEC3"
		},
		{
			"bufferView":42,
			"componentType":5126,
			"count":1284,
			"type":"VEC2"
		},
		{
			"bufferView":43,
			"componentType":5123,
			"count":7680,
			"type":"SCALAR"
		},
		{
			"bufferView":44,
			"componentType":5126,
			"count":193,
			"max":[
				0.06686318665742874,
				0.23205110430717468,
				0.04683971777558327
			],
			"min":[
				-0.06686318665742874,
				-0.16689139604568481,
				-0.11179346591234207
			],
			"type":"VEC3"
		},
		{
			"bufferView":45,
			"componentType":5126,
			"count":193,
			"type":"VEC3"
		},
		{
			"bufferView":46,
			"componentType":5126,
			"count":193,
			"type":"VEC2"
		},
		{
			"bufferView":47,
			"componentType":5123,
			"count":960,
			"type":"SCALAR"
		},
		{
			"bufferView":48,
			"componentType":5126,
			"count":193,
			"max":[
				0.051185816526412964,
				0.17764227092266083,
				0.03585724160075188
			],
			"min":[
				-0.051185816526412964,
				-0.12776049971580505,
				-0.08558133244514465
			],
			"type":"VEC3"
		},
		{
			"bufferView":49,
			"componentType":5126,
			"count":193,
			"type":"VEC3"
		},
		{
			"bufferView":50,
			"componentType":5126,
			"count":193,
			"type":"VEC2"
		},
		{
			"bufferView":51,
			"componentType":5126,
			"count":193,
			"max":[
				0.03509749844670296,
				0.12180717289447784,
				0.0245868768543005
			],
			"min":[
				-0.03509749844670296,
				-0.08760382235050201,
				-0.05868208408355713
			],
			"type":"VEC3"
		},
		{
			"bufferView":52,
			"componentType":5126,
			"count":193,
			"type":"VEC3"
		},
		{
			"bufferView":53,
			"componentType":5126,
			"count":193,
			"type":"VEC2"
		},
		{
			"bufferView":54,
			"componentType":5126,
			"count":3768,
			"max":[
				2.6142189502716064,
				1.5419241189956665,
				1.1075778007507324
			],
			"min":[
				-2.6142191886901855,
				-1.278861403465271,
				-1.1075776815414429
			],
			"type":"VEC3"
		},
		{
			"bufferView":55,
			"componentType":5126,
			"count":3768,
			"type":"VEC3"
		},
		{
			"bufferView":56,
			"componentType":5126,
			"count":3768,
			"type":"VEC2"
		},
		{
			"bufferView":57,
			"componentType":5123,
			"count":22464,
			"type":"SCALAR"
		},
		{
			"bufferView":58,
			"componentType":5126,
			"count":776,
			"max":[
				1.3585387468338013,
				-0.008693209849298,
				0.19925515353679657
			],
			"min":[
				-1.3585387468338013,
				-0.1346691995859146,
				-0.12392642349004745
			],
			"type":"VEC3"
		},
		{
			"bufferView":59,
			"componentType":5126,
			"count":776,
			"type":"VEC3"
		},
		{
			"bufferView":60,
			"componentType":5123,
			"count":4632,
			"type":"SCALAR"
		},
		{
			"bufferView":61,
			"componentType":5126,
			"count":522,
			"max":[
				1.1306982040405273,
				2.6788346767425537,
				1.0521438121795654
			],
			"min":[
				-3.146994113922119,
				-2.63015079498291,
				-1.0521442890167236
			],
			"type":"VEC3"
		},
		{
			"bufferView":62,
			"componentType":5126,
			"count":522,
			"type":"VEC3"
		},
		{
			"bufferView":63,
			"componentType":5126,
			"count":522,
			"type":"VEC2"
		},
		{
			"bufferView":64,
			"componentType":5123,
			"count":2688,
			"type":"SCALAR"
		}
	],
	"bufferViews":[
		{
			"buffer":0,
			"byteLength":32184,
			"byteOffset":0,
			"target":34962
		},
		{
			"buffer":0,
			"byteLength":32184,
			"byteOffset":32184,
			"target":34962
		},
		{
			"buffer":0,
			"byteLength":21456,
			"byteOffset":64368,
			"target":34962
		},
		{
			"buffer":0,
			"byteLength":31104,
			"byteOffset":85824,
			"target":34963
		},
		{
			"buffer":0,
			"byteLength":1500,
			"byteOffset":116928,
			"target":34962
		},
		{
			"buffer":0,
			"byteLength":1500,
			"byteOffset":118428,
			"target":34962
		},
		{
			"buffer":0,
			"byteLength":1000,
			"byteOffset":119928,
			"target":34962
		},
		{
			"buffer":0,
			"byteLength":1152,
			"byteOffset":120928,
			"target":34963
		},
		{
			"buffer":0,
			"byteLength":1800,
			"byteOffset":122080,
			"target":34962
		},
		{
			"buffer":0,
			"byteLength":1800,
			"byteOffset":123880,
			"target":34962
		},
		{
			"buffer":0,
			"byteLength":1200,
			"byteOffset":125680,
			"target":34962
		},
		{
			"buffer":0,
			"byteLength":1344,
			"byteOffset":126880,
			"target":34963
		},
		{
			"buffer":0,
			"byteLength":576,
			"byteOffset":128224,
			"target":34962
		},
		{
			"buffer":0,
			"byteLength":576,
			"byteOffset":128800,
			"target":34962
		},
		{
			"buffer":0,
			"byteLength":384,
			"byteOffset":129376,
			"target":34962
		},
		{
			"buffer":0,
			"byteLength":384,
			"byteOffset":129760,
			"target":34963
		},
		{
			"buffer":0,
			"byteLength":26496,
			"byteOffset":130144,
			"target":34962
		},
		{
			"buffer":0,
			"byteLength":26496,
			"byteOffset":156640,
			"target":34962
		},
		{
			"buffer":0,
			"byteLength":17664,
			"byteOffset":183136,
			"target":34962
		},
		{
			"buffer":0,
			"byteLength":24960,
			"byteOffset":200800,
			"target":34963
		},
		{
			"buffer":0,
			"byteLength":30264,
			"byteOffset":225760,
			"target":34962
		},
		{
			"buffer":0,
			"byteLength":30264,
			"byteOffset":256024,
			"target":34962
		},
		{
			"buffer":0,
			"byteLength":20176,
			"byteOffset":286288,
			"target":34962
		},
		{
			"buffer":0,
			"byteLength":27648,
			"byteOffset":306464,
			"target":34963
		},
		{
			"buffer":0,
			"byteLength":1176,
			"byteOffset":334112,
			"target":34962
		},
		{
			"buffer":0,
			"byteLength":1176,
			"byteOffset":335288,
			"target":34962
		},
		{
			"buffer":0,
			"byteLength":784,
			"byteOffset":336464,
			"target":34962
		},
		{
			"buffer":0,
			"byteLength":1152,
			"byteOffset":337248,
			"target":34963
		},
		{
			"buffer":0,
			"byteLength":2712,
			"byteOffset":338400,
			"target":34962
		},
		{
			"buffer":0,
			"byteLength":2712,
			"byteOffset":341112,
			"target":34962
		},
		{
			"buffer":0,
			"byteLength":1808,
			"byteOffset":343824,
			"target":34962
		},
		{
			"buffer":0,
			"byteLength":2688,
			"byteOffset":345632,
			"target":34963
		},
		{
			"buffer":0,
			"byteLength":24624,
			"byteOffset":348320,
			"target":34962
		},
		{
			"buffer":0,
			"byteLength":24624,
			"byteOffset":372944,
			"target":34962
		},
		{
			"buffer":0,
			"byteLength":16416,
			"byteOffset":397568,
			"target":34962
		},
		{
			"buffer":0,
			"byteLength":24576,
			"byteOffset":413984,
			"target":34963
		},
		{
			"buffer":0,
			"byteLength":24624,
			"byteOffset":438560,
			"target":34962
		},
		{
			"buffer":0,
			"byteLength":24624,
			"byteOffset":463184,
			"target":34962
		},
		{
			"buffer":0,
			"byteLength":16416,
			"byteOffset":487808,
			"target":34962
		},
		{
			"buffer":0,
			"byteLength":24576,
			"byteOffset":504224,
			"target":34963
		},
		{
			"buffer":0,
			"byteLength":15408,
			"byteOffset":528800,
			"target":34962
		},
		{
			"buffer":0,
			"byteLength":15408,
			"byteOffset":544208,
			"target":34962
		},
		{
			"buffer":0,
			"byteLength":10272,
			"byteOffset":559616,
			"target":34962
		},
		{
			"buffer":0,
			"byteLength":15360,
			"byteOffset":569888,
			"target":34963
		},
		{
			"buffer":0,
			"byteLength":2316,
			"byteOffset":585248,
			"target":34962
		},
		{
			"buffer":0,
			"byteLength":2316,
			"byteOffset":587564,
			"target":34962
		},
		{
			"buffer":0,
			"byteLength":1544,
			"byteOffset":589880,
			"target":34962
		},
		{
			"buffer":0,
			"byteLength":1920,
			"byteOffset":591424,
			"target":34963
		},
		{
			"buffer":0,
			"byteLength":2316,
			"byteOffset":593344,
			"target":34962
		},
		{
			"buffer":0,
			"byteLength":2316,
			"byteOffset":595660,
			"target":34962
		},
		{
			"buffer":0,
			"byteLength":1544,
			"byteOffset":597976,
			"target":34962
		},
		{
			"buffer":0,
			"byteLength":2316,
			"byteOffset":599520,
			"target":34962
		},
		{
			"buffer":0,
			"byteLength":2316,
			"byteOffset":601836,
			"target":34962
		},
		{
			"buffer":0,
			"byteLength":1544,
			"byteOffset":604152,
			"target":34962
		},
		{
			"buffer":0,
			"byteLength":45216,
			"byteOffset":605696,
			"target":34962
		},
		{
			"buffer":0,
			"byteLength":45216,
			"byteOffset":650912,
			"target":34962
		},
		{
			"buffer":0,
			"byteLength":30144,
			"byteOffset":696128,
			"target":34962
		},
		{
			"buffer":0,
			"byteLength":44928,
			"byteOffset":726272,
			"target":34963
		},
		{
			"buffer":0,
			"byteLength":9312,
			"byteOffset":771200,
			"target":34962
		},
		{
			"buffer":0,
			"byteLength":9312,
			"byteOffset":780512,
			"target":34962
		},
		{
			"buffer":0,
			"byteLength":9264,
			"byteOffset":789824,
			"target":34963
		},
		{
			"buffer":0,
			"byteLength":6264,
			"byteOffset":799088,
			"target":34962
		},
		{
			"buffer":0,
			"byteLength":6264,
			"byteOffset":805352,
			"target":34962
		},
		{
			"buffer":0,
			"byteLength":4176,
			"byteOffset":811616,
			"target":34962
		},
		{
			"buffer":0,
			"byteLength":5376,
			"byteOffset":815792,
			"target":34963
		}
	],
	"buffers":[
		{
			"byteLength":821168,
			"uri":"girlCat2.bin"
		}
	]
}
